<?xml version="1.0" encoding="UTF-8"?>
<svg xmlns="http://www.w3.org/2000/svg" id="Layer_1" data-name="Layer 1" viewBox="0 0 24 24" width="512" height="512">
  <style>
    path {
      fill: black;
    }
    @media (prefers-color-scheme: dark) {
      path {
        fill: white;
      }
    }
  </style>
  <path d="M22.47559,13.15332a.49845.49845,0,0,0-.05957-.43066l-2-3c-.00568-.00849-.01722-.01044-.02338-.01856a.49.49,0,0,0-.20557-.16339c-.00451-.00189-.00671-.0072-.01129-.009l-3-1.125a.50017.50017,0,0,0-.35156.93652l1.75152.65668L12,12.46582,5.42438,9.99994l1.41839-.53168a.50017.50017,0,0,0-.35156-.93652l-2.667,1c-.00446.00171-.00659.0069-.011.00873a.48993.48993,0,0,0-.20593.16369c-.00616.00806-.01764.01-.02332.0185l-2,3a.50071.50071,0,0,0,.24024.7456L3.5,14.09668v3.51758a2.51331,2.51331,0,0,0,1.62207,2.34082l6.70215,2.51318a.50262.50262,0,0,0,.35156,0l6.70215-2.51318A2.51331,2.51331,0,0,0,20.5,17.61426V14.09668l1.67578-.62842A.50012.50012,0,0,0,22.47559,13.15332Zm-19.71-.40039,1.43-2.14539,7.03869,2.63953-1.4306,2.14551ZM11.5,21.27832,5.47363,19.01855A1.50731,1.50731,0,0,1,4.5,17.61426V14.47168l5.32422,1.99658a.50064.50064,0,0,0,.5918-.19092l1.084-1.626Zm8-3.66406a1.50731,1.50731,0,0,1-.97363,1.40429L12.5,21.27832v-6.627l1.084,1.626a.50064.50064,0,0,0,.5918.19092L19.5,14.47168Zm-5.30371-2.22168-1.4306-2.14551,7.03869-2.63953,1.43,2.14539ZM12,7.5a.49971.49971,0,0,1-.5-.5V2a.5.5,0,0,1,1,0V7A.49971.49971,0,0,1,12,7.5Zm-3.35352.85352-3-3a.5.5,0,0,1,.707-.707l3,3a.5.5,0,1,1-.707.707ZM15,8.5a.5.5,0,0,1-.35352-.85352l3-3a.5.5,0,0,1,.707.707l-3,3A.49842.49842,0,0,1,15,8.5Z"/>
</svg>